<?xml version="1.0" encoding="utf-8"?>
<!-- Generator: Adobe Illustrator 23.0.1, SVG Export Plug-In . SVG Version: 6.00 Build 0)  -->
<svg version="1.1" id="图层_1" xmlns="http://www.w3.org/2000/svg" xmlns:xlink="http://www.w3.org/1999/xlink" x="0px" y="0px"
	 viewBox="0 0 285 56" style="enable-background:new 0 0 285 56;" xml:space="preserve">
<g>
	<g>
		<g>
			<path d="M147.98,54.19l11.61-15.41h9.08l-11.76,15.41H147.98z M150.8,3.12h33.13c4.39,0,10.27-0.07,14.67-0.45
				c3.95-0.37,7.82-1.04,11.54-2.01v6.48c-3.28,0.74-7.07,1.34-10.42,1.71c-4.99,0.52-10.79,0.6-15.71,0.6h-3.42
				c-3.28,2.61-7.15,5.14-10.27,6.77c4.17,0.07,9.16-0.15,14.07-0.6l5.96-3.57h12.88c-9.38,6.4-19.65,12.21-30.15,17.05
				c7.44-0.15,15.19-0.67,22.33-1.49l-3.8-4.76h8.93l11.39,13.92h-9.08l-2.9-3.5c-4.47,0.6-9.01,1.04-13.62,1.34v13.92
				c0,2.83-0.67,4.69-1.94,5.96c-1.34,1.19-3.42,1.64-6.18,1.41c-3.65-0.15-7.37-1.12-11.31-2.83V46.3
				c3.35,1.71,5.88,2.68,8.86,2.98c1.34,0.15,2.16-0.07,2.16-1.79V35.13c-8.41,0.45-16.75,0.45-25.01,0.37
				c-1.12,0-1.86-0.82-1.94-1.71c-0.22-0.89,0.22-1.94,1.41-2.46c6.92-2.83,14.07-6.18,20.99-9.75c-6.03,0.52-11.99,0.74-18.24,0.74
				c-1.41,0-2.23-0.89-2.31-1.94c-0.07-0.97,0.6-1.86,1.56-2.31c5.29-2.53,10.5-5.66,14.59-8.64H150.8V3.12z M192.64,38.56h8.78
				l11.98,15.63h-8.86L192.64,38.56z"/>
			<path d="M233.96,9.23h-10.27v-6.7h35.29v6.7h-17.05c-0.67,1.64-1.41,3.28-2.23,4.84h14.14c2.31,0,2.98,1.12,2.68,3.05
				c-0.67,4.17-1.86,8.04-3.13,11.61c-3.87,10.94-10.5,19.65-20.84,27.25l-8.56-2.68c7.82-5.66,13.18-10.87,17.05-16.6
				c-2.53-1.64-5.73-3.5-8.04-4.62l3.13-5.73c2.53,1.12,5.81,2.75,8.41,4.39c1.49-3.13,2.76-6.48,3.87-10.2h-11.99
				c-2.08,3.87-4.24,7.37-6.18,10.27h-8.11C226.44,23.74,230.91,15.78,233.96,9.23z M261.95,5.58h7.59v32.61h-7.59V5.58z
				 M269.76,54.71c-1.86-0.52-4.69-1.56-6.33-2.38v-7.3c3.57,1.86,7.67,3.5,11.24,3.95c1.49,0.15,1.79-0.37,1.79-1.94V-0.23h7.97
				v48.54c0,3.13-0.67,5.06-1.94,6.18c-1.49,1.19-3.72,1.56-6.77,1.34C273.78,55.68,271.7,55.31,269.76,54.71z"/>
		</g>
	</g>
	<g>
		<path d="M1.24,52.49v-9.01c5.82,1.44,17.79,3.67,30.71,3.67c15.16,0,18.51-1.83,18.51-6.22c0-3.67-3.35-4.71-9.65-5.82
			l-22.25-3.83C8.42,29.52,0.6,27.05,0.6,16.84C0.6,7.03,6.9,2,30.75,2C42.4,2,52.85,3.2,58.83,4.47v8.93
			c-5.9-1.12-17.39-2.55-28.16-2.55c-16.99,0-19.22,2.07-19.22,5.82c0,3.83,3.51,4.71,9.73,5.82l22.17,3.75
			c11.57,1.91,18.03,5.18,18.03,14.68C61.38,51.37,53.8,56,31.47,56C17.99,56,7.22,54.09,1.24,52.49z"/>
		<path d="M74.06,53.05v-8.77c6.3,1.36,18.27,3.11,29.03,3.11c17.47,0,22.49-2.15,22.49-8.38c0-6.46-5.02-8.22-21.14-8.22
			c-8.85,0-14.76,0.4-23.37,0.88c-5.18,0.32-6.78-1.83-6.14-6.22l3.51-22.33h54.24v8.69H86.66l-1.99,11.81
			c6.06-0.56,14.2-1.12,22.73-1.12c17.23,0,29.35,2.63,29.35,16.27c0,12.92-11.65,17.23-33.5,17.23
			C90.41,56,78.69,54.25,74.06,53.05z"/>
	</g>
</g>
</svg>
