<svg id="图层_1" data-name="图层 1" xmlns="http://www.w3.org/2000/svg" viewBox="0 0 311.12 59.36"><title>SVG</title><path d="M58.56,26.89,36.33,23.75c-4-.62-6.89-1.33-6.89-3.91,0-2.82,1.72-3.76,15.89-3.76a166.09,166.09,0,0,1,28.26,2.35V7.16A148.2,148.2,0,0,0,45.33,4.81c-23.57,0-29.83,5.32-29.83,15.34,0,11,8.61,13.55,18.71,15l21.53,3.05c4.31.63,6.74,1.49,6.74,4.15s-1.57,4.15-15,4.15a148.64,148.64,0,0,1-30.92-3.29V54.52c5.87,1.57,15.81,3.29,30.06,3.29,22.86,0,29.83-4.85,29.83-15.58C76.41,32.29,70.07,28.53,58.56,26.89Z" transform="translate(-15.5 -1.6)"/><path d="M118.53,24.46c-6.73,0-14.72.55-19,.94L101,16.71h43.3V5.9H90.58L86.9,28.61c-.71,4.62,1,6.89,6.26,6.65,10.26-.39,14.72-.54,22.32-.54,13.23,0,18.47.62,18.47,6S129.18,47,115.08,47a162.64,162.64,0,0,1-28.81-3.13v11c4.23,1.17,16.13,3,29.21,3,21.92,0,32.88-4.85,32.88-17.3C148.36,25.4,133.56,24.46,118.53,24.46Z" transform="translate(-15.5 -1.6)"/><path d="M240.35,40.82h10.49l-11.75-15H228.52l3.76,4.86c-6.42.7-13.23,1.17-20,1.4a236.1,236.1,0,0,0,30-17.53H226.72L220.93,18a110.59,110.59,0,0,1-12.84.63A70.32,70.32,0,0,0,218,12.48h1.25a169.87,169.87,0,0,0,17.85-.63A97.59,97.59,0,0,0,248.72,10V2.22a80.71,80.71,0,0,1-13.07,2.2c-5.48.47-11.12.54-16.6.54H185.54v7.52H204.1a82.93,82.93,0,0,1-14.49,8.3,2.84,2.84,0,0,0-1.88,3,2.65,2.65,0,0,0,2.82,2c6.19,0,11.75-.23,17.54-.63-6.81,3.45-13.78,6.74-20.67,9.48a2.65,2.65,0,0,0-1.8,2.66A2.36,2.36,0,0,0,188,39.65c8.61.15,17.46.08,26.23-.39V51.31c0,1.33-.47,1.73-1.73,1.65-3.52-.32-6.57-1.57-10.09-3.37v8a33.37,33.37,0,0,0,13.77,3.36c3,0,5-.54,6.27-1.88s1.8-3.36,1.8-6.26V38.71c4.46-.31,8.92-.78,13.39-1.33Z" transform="translate(-15.5 -1.6)"/><polygon points="179.44 40.95 166.91 57.54 177.32 57.54 190.24 40.95 179.44 40.95"/><polygon points="214.35 40.71 226.57 57.54 236.9 57.54 224.77 40.71 214.35 40.71"/><path d="M317.07,1.6V51c0,1.41-.24,1.88-1.64,1.64a44.75,44.75,0,0,1-12.3-4.46v8.61a43.85,43.85,0,0,0,7,2.74,45.17,45.17,0,0,0,6.11,1.26c3.52.39,6.18.15,8-1.18,1.57-1.25,2.43-3.44,2.43-7.12V1.6Z" transform="translate(-15.5 -1.6)"/><path d="M262.34,12.72H273c-3.37,6.81-8,14.79-12.29,22h9.55c2-3,4.15-6.5,6.26-10.42h11.75a89.91,89.91,0,0,1-3.68,9.63,68.22,68.22,0,0,0-9.08-4.77L271.9,36a87,87,0,0,1,8.53,5c-4,5.71-9.55,10.65-18.09,16.52l10.26,3.44c11.2-7.9,18.16-17.06,22.08-28.49a67.62,67.62,0,0,0,3.21-12c.39-2.59-.31-4-3.37-4H280.59l1.72-3.75H300v-8H262.34Z" transform="translate(-15.5 -1.6)"/><rect x="286.77" y="6.03" width="9.08" height="34.37"/></svg>